<svg version="1.1" id="Layer_1" xmlns="http://www.w3.org/2000/svg" xmlns:xlink="http://www.w3.org/1999/xlink" x="0px" y="0px"
	 width="61px" height="61px" viewBox="0 0 61 61" style="enable-background:new 0 0 61 61;" xml:space="preserve">
<style type="text/css">
	.st0{fill:none;stroke:#009688;}
	.st1{fill:none;stroke:#009688;stroke-width:0.999978;stroke-miterlimit:3.999912;}
	.st2{fill:#009688;}
</style>
	<g>
	<ellipse class="st0" cx="30.5" cy="30.5" rx="30" ry="11.5"/>

		<ellipse transform="matrix(0.8660191 -0.500011 0.500011 0.8660191 -11.1602507 19.3434353)" class="st1" cx="30.5142994" cy="30.4965" rx="11.4997473" ry="29.9993401"/>

		<ellipse transform="matrix(0.500011 -0.8660191 0.8660191 0.500011 -11.2374029 41.5555611)" class="st1" cx="30.3700008" cy="30.5098" rx="29.999342" ry="11.4997473"/>
		<path class="st2" d="M34.5,26.1000004c-2.4000015-2.2000008-6.2000008-2-8.2999992,0.5
		c-1.5,1.6000004-1.8999996,4-1.1000004,5.9999981V33.5l-0.8999996,2.0999985c0,0.2999992,0,0.9000015,0.5,0.9000015H25
		l2.1000004-0.9000015H28c0.8999996,0.2999992,1.7999992,0.5,2.7999992,0.5
		c3.0999985,0.0999985,5.7000008-2.2999992,5.7999992-5.3999996C36.7000008,28.8999996,35.9000015,27.2000008,34.5,26.1000004z
		 M33.7999992,32.5999985h-6C27.5999985,32.5999985,27.5,32.5,27.5,32.2999992S27.6000004,32,27.7999992,32h6V32.5999985
		L33.7999992,32.5999985z M33.7999992,30.7000008h-6c-0.2000008,0-0.2999992-0.1000004-0.2999992-0.2999992
		c0-0.2000008,0.1000004-0.2999992,0.2999992-0.2999992h6V30.7000008z M33.7999992,28.6000004h-6
		C27.5999985,28.6000004,27.5,28.5,27.5,28.3000011c0-0.2000008,0.1000004-0.2999992,0.2999992-0.2999992h6V28.6000004z"/>
</g>
</svg>
